<?xml version="1.0" encoding="utf-8" standalone="no"?>
<!DOCTYPE svg PUBLIC "-//W3C//DTD SVG 1.1//EN"
  "http://www.w3.org/Graphics/SVG/1.1/DTD/svg11.dtd">
<svg xmlns:xlink="http://www.w3.org/1999/xlink" width="349.2pt" height="236.16pt" viewBox="0 0 349.2 236.16" xmlns="http://www.w3.org/2000/svg" version="1.1">
 <metadata>
  <rdf:RDF xmlns:dc="http://purl.org/dc/elements/1.1/" xmlns:cc="http://creativecommons.org/ns#" xmlns:rdf="http://www.w3.org/1999/02/22-rdf-syntax-ns#">
   <cc:Work>
    <dc:type rdf:resource="http://purl.org/dc/dcmitype/StillImage"/>
    <dc:date>2025-07-25T23:05:53.422639</dc:date>
    <dc:format>image/svg+xml</dc:format>
    <dc:creator>
     <cc:Agent>
      <dc:title>Matplotlib v3.6.3, https://matplotlib.org/</dc:title>
     </cc:Agent>
    </dc:creator>
   </cc:Work>
  </rdf:RDF>
 </metadata>
 <defs>
  <style type="text/css">*{stroke-linejoin: round; stroke-linecap: butt}</style>
 </defs>
 <g id="figure_1">
  <g id="patch_1">
   <path d="M 0 236.16 
L 349.2 236.16 
L 349.2 0 
L 0 0 
z
" style="fill: #ffffff"/>
  </g>
  <g id="axes_1">
   <g id="text_1">
    <g id="patch_2">
     <path d="M 70.874219 55.901969 
L 278.325781 55.901969 
Q 283.325781 55.901969 283.325781 50.901969 
L 283.325781 30.026031 
Q 283.325781 25.026031 278.325781 25.026031 
L 70.874219 25.026031 
Q 65.874219 25.026031 65.874219 30.026031 
L 65.874219 50.901969 
Q 65.874219 55.901969 70.874219 55.901969 
z
" style="fill: #f0f8ff; stroke: #4682b4; stroke-linejoin: miter"/>
    </g>
    <!-- Edusemi-v4x -->
    <g style="fill: #333333" transform="translate(142.384375 37.624469) scale(0.1 -0.1)">
     <defs>
      <path id="DejaVuSans-45" d="M 628 4666 
L 3578 4666 
L 3578 4134 
L 1259 4134 
L 1259 2753 
L 3481 2753 
L 3481 2222 
L 1259 2222 
L 1259 531 
L 3634 531 
L 3634 0 
L 628 0 
L 628 4666 
z
" transform="scale(0.015625)"/>
      <path id="DejaVuSans-64" d="M 2906 2969 
L 2906 4863 
L 3481 4863 
L 3481 0 
L 2906 0 
L 2906 525 
Q 2725 213 2448 61 
Q 2172 -91 1784 -91 
Q 1150 -91 751 415 
Q 353 922 353 1747 
Q 353 2572 751 3078 
Q 1150 3584 1784 3584 
Q 2172 3584 2448 3432 
Q 2725 3281 2906 2969 
z
M 947 1747 
Q 947 1113 1208 752 
Q 1469 391 1925 391 
Q 2381 391 2643 752 
Q 2906 1113 2906 1747 
Q 2906 2381 2643 2742 
Q 2381 3103 1925 3103 
Q 1469 3103 1208 2742 
Q 947 2381 947 1747 
z
" transform="scale(0.015625)"/>
      <path id="DejaVuSans-75" d="M 544 1381 
L 544 3500 
L 1119 3500 
L 1119 1403 
Q 1119 906 1312 657 
Q 1506 409 1894 409 
Q 2359 409 2629 706 
Q 2900 1003 2900 1516 
L 2900 3500 
L 3475 3500 
L 3475 0 
L 2900 0 
L 2900 538 
Q 2691 219 2414 64 
Q 2138 -91 1772 -91 
Q 1169 -91 856 284 
Q 544 659 544 1381 
z
M 1991 3584 
L 1991 3584 
z
" transform="scale(0.015625)"/>
      <path id="DejaVuSans-73" d="M 2834 3397 
L 2834 2853 
Q 2591 2978 2328 3040 
Q 2066 3103 1784 3103 
Q 1356 3103 1142 2972 
Q 928 2841 928 2578 
Q 928 2378 1081 2264 
Q 1234 2150 1697 2047 
L 1894 2003 
Q 2506 1872 2764 1633 
Q 3022 1394 3022 966 
Q 3022 478 2636 193 
Q 2250 -91 1575 -91 
Q 1294 -91 989 -36 
Q 684 19 347 128 
L 347 722 
Q 666 556 975 473 
Q 1284 391 1588 391 
Q 1994 391 2212 530 
Q 2431 669 2431 922 
Q 2431 1156 2273 1281 
Q 2116 1406 1581 1522 
L 1381 1569 
Q 847 1681 609 1914 
Q 372 2147 372 2553 
Q 372 3047 722 3315 
Q 1072 3584 1716 3584 
Q 2034 3584 2315 3537 
Q 2597 3491 2834 3397 
z
" transform="scale(0.015625)"/>
      <path id="DejaVuSans-65" d="M 3597 1894 
L 3597 1613 
L 953 1613 
Q 991 1019 1311 708 
Q 1631 397 2203 397 
Q 2534 397 2845 478 
Q 3156 559 3463 722 
L 3463 178 
Q 3153 47 2828 -22 
Q 2503 -91 2169 -91 
Q 1331 -91 842 396 
Q 353 884 353 1716 
Q 353 2575 817 3079 
Q 1281 3584 2069 3584 
Q 2775 3584 3186 3129 
Q 3597 2675 3597 1894 
z
M 3022 2063 
Q 3016 2534 2758 2815 
Q 2500 3097 2075 3097 
Q 1594 3097 1305 2825 
Q 1016 2553 972 2059 
L 3022 2063 
z
" transform="scale(0.015625)"/>
      <path id="DejaVuSans-6d" d="M 3328 2828 
Q 3544 3216 3844 3400 
Q 4144 3584 4550 3584 
Q 5097 3584 5394 3201 
Q 5691 2819 5691 2113 
L 5691 0 
L 5113 0 
L 5113 2094 
Q 5113 2597 4934 2840 
Q 4756 3084 4391 3084 
Q 3944 3084 3684 2787 
Q 3425 2491 3425 1978 
L 3425 0 
L 2847 0 
L 2847 2094 
Q 2847 2600 2669 2842 
Q 2491 3084 2119 3084 
Q 1678 3084 1418 2786 
Q 1159 2488 1159 1978 
L 1159 0 
L 581 0 
L 581 3500 
L 1159 3500 
L 1159 2956 
Q 1356 3278 1631 3431 
Q 1906 3584 2284 3584 
Q 2666 3584 2933 3390 
Q 3200 3197 3328 2828 
z
" transform="scale(0.015625)"/>
      <path id="DejaVuSans-69" d="M 603 3500 
L 1178 3500 
L 1178 0 
L 603 0 
L 603 3500 
z
M 603 4863 
L 1178 4863 
L 1178 4134 
L 603 4134 
L 603 4863 
z
" transform="scale(0.015625)"/>
      <path id="DejaVuSans-2d" d="M 313 2009 
L 1997 2009 
L 1997 1497 
L 313 1497 
L 313 2009 
z
" transform="scale(0.015625)"/>
      <path id="DejaVuSans-76" d="M 191 3500 
L 800 3500 
L 1894 563 
L 2988 3500 
L 3597 3500 
L 2284 0 
L 1503 0 
L 191 3500 
z
" transform="scale(0.015625)"/>
      <path id="DejaVuSans-34" d="M 2419 4116 
L 825 1625 
L 2419 1625 
L 2419 4116 
z
M 2253 4666 
L 3047 4666 
L 3047 1625 
L 3713 1625 
L 3713 1100 
L 3047 1100 
L 3047 0 
L 2419 0 
L 2419 1100 
L 313 1100 
L 313 1709 
L 2253 4666 
z
" transform="scale(0.015625)"/>
      <path id="DejaVuSans-78" d="M 3513 3500 
L 2247 1797 
L 3578 0 
L 2900 0 
L 1881 1375 
L 863 0 
L 184 0 
L 1544 1831 
L 300 3500 
L 978 3500 
L 1906 2253 
L 2834 3500 
L 3513 3500 
z
" transform="scale(0.015625)"/>
     </defs>
     <use xlink:href="#DejaVuSans-45"/>
     <use xlink:href="#DejaVuSans-64" x="63.183594"/>
     <use xlink:href="#DejaVuSans-75" x="126.660156"/>
     <use xlink:href="#DejaVuSans-73" x="190.039062"/>
     <use xlink:href="#DejaVuSans-65" x="242.138672"/>
     <use xlink:href="#DejaVuSans-6d" x="303.662109"/>
     <use xlink:href="#DejaVuSans-69" x="401.074219"/>
     <use xlink:href="#DejaVuSans-2d" x="428.857422"/>
     <use xlink:href="#DejaVuSans-76" x="462.316406"/>
     <use xlink:href="#DejaVuSans-34" x="521.496094"/>
     <use xlink:href="#DejaVuSans-78" x="585.119141"/>
    </g>
    <!-- Foundation of Semiconductor SoC Design -->
    <g style="fill: #333333" transform="translate(70.874219 48.822281) scale(0.1 -0.1)">
     <defs>
      <path id="DejaVuSans-46" d="M 628 4666 
L 3309 4666 
L 3309 4134 
L 1259 4134 
L 1259 2759 
L 3109 2759 
L 3109 2228 
L 1259 2228 
L 1259 0 
L 628 0 
L 628 4666 
z
" transform="scale(0.015625)"/>
      <path id="DejaVuSans-6f" d="M 1959 3097 
Q 1497 3097 1228 2736 
Q 959 2375 959 1747 
Q 959 1119 1226 758 
Q 1494 397 1959 397 
Q 2419 397 2687 759 
Q 2956 1122 2956 1747 
Q 2956 2369 2687 2733 
Q 2419 3097 1959 3097 
z
M 1959 3584 
Q 2709 3584 3137 3096 
Q 3566 2609 3566 1747 
Q 3566 888 3137 398 
Q 2709 -91 1959 -91 
Q 1206 -91 779 398 
Q 353 888 353 1747 
Q 353 2609 779 3096 
Q 1206 3584 1959 3584 
z
" transform="scale(0.015625)"/>
      <path id="DejaVuSans-6e" d="M 3513 2113 
L 3513 0 
L 2938 0 
L 2938 2094 
Q 2938 2591 2744 2837 
Q 2550 3084 2163 3084 
Q 1697 3084 1428 2787 
Q 1159 2491 1159 1978 
L 1159 0 
L 581 0 
L 581 3500 
L 1159 3500 
L 1159 2956 
Q 1366 3272 1645 3428 
Q 1925 3584 2291 3584 
Q 2894 3584 3203 3211 
Q 3513 2838 3513 2113 
z
" transform="scale(0.015625)"/>
      <path id="DejaVuSans-61" d="M 2194 1759 
Q 1497 1759 1228 1600 
Q 959 1441 959 1056 
Q 959 750 1161 570 
Q 1363 391 1709 391 
Q 2188 391 2477 730 
Q 2766 1069 2766 1631 
L 2766 1759 
L 2194 1759 
z
M 3341 1997 
L 3341 0 
L 2766 0 
L 2766 531 
Q 2569 213 2275 61 
Q 1981 -91 1556 -91 
Q 1019 -91 701 211 
Q 384 513 384 1019 
Q 384 1609 779 1909 
Q 1175 2209 1959 2209 
L 2766 2209 
L 2766 2266 
Q 2766 2663 2505 2880 
Q 2244 3097 1772 3097 
Q 1472 3097 1187 3025 
Q 903 2953 641 2809 
L 641 3341 
Q 956 3463 1253 3523 
Q 1550 3584 1831 3584 
Q 2591 3584 2966 3190 
Q 3341 2797 3341 1997 
z
" transform="scale(0.015625)"/>
      <path id="DejaVuSans-74" d="M 1172 4494 
L 1172 3500 
L 2356 3500 
L 2356 3053 
L 1172 3053 
L 1172 1153 
Q 1172 725 1289 603 
Q 1406 481 1766 481 
L 2356 481 
L 2356 0 
L 1766 0 
Q 1100 0 847 248 
Q 594 497 594 1153 
L 594 3053 
L 172 3053 
L 172 3500 
L 594 3500 
L 594 4494 
L 1172 4494 
z
" transform="scale(0.015625)"/>
      <path id="DejaVuSans-20" transform="scale(0.015625)"/>
      <path id="DejaVuSans-66" d="M 2375 4863 
L 2375 4384 
L 1825 4384 
Q 1516 4384 1395 4259 
Q 1275 4134 1275 3809 
L 1275 3500 
L 2222 3500 
L 2222 3053 
L 1275 3053 
L 1275 0 
L 697 0 
L 697 3053 
L 147 3053 
L 147 3500 
L 697 3500 
L 697 3744 
Q 697 4328 969 4595 
Q 1241 4863 1831 4863 
L 2375 4863 
z
" transform="scale(0.015625)"/>
      <path id="DejaVuSans-53" d="M 3425 4513 
L 3425 3897 
Q 3066 4069 2747 4153 
Q 2428 4238 2131 4238 
Q 1616 4238 1336 4038 
Q 1056 3838 1056 3469 
Q 1056 3159 1242 3001 
Q 1428 2844 1947 2747 
L 2328 2669 
Q 3034 2534 3370 2195 
Q 3706 1856 3706 1288 
Q 3706 609 3251 259 
Q 2797 -91 1919 -91 
Q 1588 -91 1214 -16 
Q 841 59 441 206 
L 441 856 
Q 825 641 1194 531 
Q 1563 422 1919 422 
Q 2459 422 2753 634 
Q 3047 847 3047 1241 
Q 3047 1584 2836 1778 
Q 2625 1972 2144 2069 
L 1759 2144 
Q 1053 2284 737 2584 
Q 422 2884 422 3419 
Q 422 4038 858 4394 
Q 1294 4750 2059 4750 
Q 2388 4750 2728 4690 
Q 3069 4631 3425 4513 
z
" transform="scale(0.015625)"/>
      <path id="DejaVuSans-63" d="M 3122 3366 
L 3122 2828 
Q 2878 2963 2633 3030 
Q 2388 3097 2138 3097 
Q 1578 3097 1268 2742 
Q 959 2388 959 1747 
Q 959 1106 1268 751 
Q 1578 397 2138 397 
Q 2388 397 2633 464 
Q 2878 531 3122 666 
L 3122 134 
Q 2881 22 2623 -34 
Q 2366 -91 2075 -91 
Q 1284 -91 818 406 
Q 353 903 353 1747 
Q 353 2603 823 3093 
Q 1294 3584 2113 3584 
Q 2378 3584 2631 3529 
Q 2884 3475 3122 3366 
z
" transform="scale(0.015625)"/>
      <path id="DejaVuSans-72" d="M 2631 2963 
Q 2534 3019 2420 3045 
Q 2306 3072 2169 3072 
Q 1681 3072 1420 2755 
Q 1159 2438 1159 1844 
L 1159 0 
L 581 0 
L 581 3500 
L 1159 3500 
L 1159 2956 
Q 1341 3275 1631 3429 
Q 1922 3584 2338 3584 
Q 2397 3584 2469 3576 
Q 2541 3569 2628 3553 
L 2631 2963 
z
" transform="scale(0.015625)"/>
      <path id="DejaVuSans-43" d="M 4122 4306 
L 4122 3641 
Q 3803 3938 3442 4084 
Q 3081 4231 2675 4231 
Q 1875 4231 1450 3742 
Q 1025 3253 1025 2328 
Q 1025 1406 1450 917 
Q 1875 428 2675 428 
Q 3081 428 3442 575 
Q 3803 722 4122 1019 
L 4122 359 
Q 3791 134 3420 21 
Q 3050 -91 2638 -91 
Q 1578 -91 968 557 
Q 359 1206 359 2328 
Q 359 3453 968 4101 
Q 1578 4750 2638 4750 
Q 3056 4750 3426 4639 
Q 3797 4528 4122 4306 
z
" transform="scale(0.015625)"/>
      <path id="DejaVuSans-44" d="M 1259 4147 
L 1259 519 
L 2022 519 
Q 2988 519 3436 956 
Q 3884 1394 3884 2338 
Q 3884 3275 3436 3711 
Q 2988 4147 2022 4147 
L 1259 4147 
z
M 628 4666 
L 1925 4666 
Q 3281 4666 3915 4102 
Q 4550 3538 4550 2338 
Q 4550 1131 3912 565 
Q 3275 0 1925 0 
L 628 0 
L 628 4666 
z
" transform="scale(0.015625)"/>
      <path id="DejaVuSans-67" d="M 2906 1791 
Q 2906 2416 2648 2759 
Q 2391 3103 1925 3103 
Q 1463 3103 1205 2759 
Q 947 2416 947 1791 
Q 947 1169 1205 825 
Q 1463 481 1925 481 
Q 2391 481 2648 825 
Q 2906 1169 2906 1791 
z
M 3481 434 
Q 3481 -459 3084 -895 
Q 2688 -1331 1869 -1331 
Q 1566 -1331 1297 -1286 
Q 1028 -1241 775 -1147 
L 775 -588 
Q 1028 -725 1275 -790 
Q 1522 -856 1778 -856 
Q 2344 -856 2625 -561 
Q 2906 -266 2906 331 
L 2906 616 
Q 2728 306 2450 153 
Q 2172 0 1784 0 
Q 1141 0 747 490 
Q 353 981 353 1791 
Q 353 2603 747 3093 
Q 1141 3584 1784 3584 
Q 2172 3584 2450 3431 
Q 2728 3278 2906 2969 
L 2906 3500 
L 3481 3500 
L 3481 434 
z
" transform="scale(0.015625)"/>
     </defs>
     <use xlink:href="#DejaVuSans-46"/>
     <use xlink:href="#DejaVuSans-6f" x="53.894531"/>
     <use xlink:href="#DejaVuSans-75" x="115.076172"/>
     <use xlink:href="#DejaVuSans-6e" x="178.455078"/>
     <use xlink:href="#DejaVuSans-64" x="241.833984"/>
     <use xlink:href="#DejaVuSans-61" x="305.310547"/>
     <use xlink:href="#DejaVuSans-74" x="366.589844"/>
     <use xlink:href="#DejaVuSans-69" x="405.798828"/>
     <use xlink:href="#DejaVuSans-6f" x="433.582031"/>
     <use xlink:href="#DejaVuSans-6e" x="494.763672"/>
     <use xlink:href="#DejaVuSans-20" x="558.142578"/>
     <use xlink:href="#DejaVuSans-6f" x="589.929688"/>
     <use xlink:href="#DejaVuSans-66" x="651.111328"/>
     <use xlink:href="#DejaVuSans-20" x="686.316406"/>
     <use xlink:href="#DejaVuSans-53" x="718.103516"/>
     <use xlink:href="#DejaVuSans-65" x="781.580078"/>
     <use xlink:href="#DejaVuSans-6d" x="843.103516"/>
     <use xlink:href="#DejaVuSans-69" x="940.515625"/>
     <use xlink:href="#DejaVuSans-63" x="968.298828"/>
     <use xlink:href="#DejaVuSans-6f" x="1023.279297"/>
     <use xlink:href="#DejaVuSans-6e" x="1084.460938"/>
     <use xlink:href="#DejaVuSans-64" x="1147.839844"/>
     <use xlink:href="#DejaVuSans-75" x="1211.316406"/>
     <use xlink:href="#DejaVuSans-63" x="1274.695312"/>
     <use xlink:href="#DejaVuSans-74" x="1329.675781"/>
     <use xlink:href="#DejaVuSans-6f" x="1368.884766"/>
     <use xlink:href="#DejaVuSans-72" x="1430.066406"/>
     <use xlink:href="#DejaVuSans-20" x="1471.179688"/>
     <use xlink:href="#DejaVuSans-53" x="1502.966797"/>
     <use xlink:href="#DejaVuSans-6f" x="1566.443359"/>
     <use xlink:href="#DejaVuSans-43" x="1627.625"/>
     <use xlink:href="#DejaVuSans-20" x="1697.449219"/>
     <use xlink:href="#DejaVuSans-44" x="1729.236328"/>
     <use xlink:href="#DejaVuSans-65" x="1806.238281"/>
     <use xlink:href="#DejaVuSans-73" x="1867.761719"/>
     <use xlink:href="#DejaVuSans-69" x="1919.861328"/>
     <use xlink:href="#DejaVuSans-67" x="1947.644531"/>
     <use xlink:href="#DejaVuSans-6e" x="2011.121094"/>
    </g>
   </g>
   <g id="text_2">
    <g id="patch_3">
     <path d="M 89.357812 122.429969 
L 259.842188 122.429969 
Q 264.842188 122.429969 264.842188 117.429969 
L 264.842188 96.554031 
Q 264.842188 91.554031 259.842188 91.554031 
L 89.357812 91.554031 
Q 84.357812 91.554031 84.357812 96.554031 
L 84.357812 117.429969 
Q 84.357812 122.429969 89.357812 122.429969 
z
" style="fill: #fef9e7; stroke: #b7950b; stroke-linejoin: miter"/>
    </g>
    <!-- EduController -->
    <g style="fill: #333333" transform="translate(140.505469 104.152469) scale(0.1 -0.1)">
     <defs>
      <path id="DejaVuSans-6c" d="M 603 4863 
L 1178 4863 
L 1178 0 
L 603 0 
L 603 4863 
z
" transform="scale(0.015625)"/>
     </defs>
     <use xlink:href="#DejaVuSans-45"/>
     <use xlink:href="#DejaVuSans-64" x="63.183594"/>
     <use xlink:href="#DejaVuSans-75" x="126.660156"/>
     <use xlink:href="#DejaVuSans-43" x="190.039062"/>
     <use xlink:href="#DejaVuSans-6f" x="259.863281"/>
     <use xlink:href="#DejaVuSans-6e" x="321.044922"/>
     <use xlink:href="#DejaVuSans-74" x="384.423828"/>
     <use xlink:href="#DejaVuSans-72" x="423.632812"/>
     <use xlink:href="#DejaVuSans-6f" x="462.496094"/>
     <use xlink:href="#DejaVuSans-6c" x="523.677734"/>
     <use xlink:href="#DejaVuSans-6c" x="551.460938"/>
     <use xlink:href="#DejaVuSans-65" x="579.244141"/>
     <use xlink:href="#DejaVuSans-72" x="640.767578"/>
    </g>
    <!-- Control Theory + AI + SoC Design -->
    <g style="fill: #333333" transform="translate(89.357812 115.350281) scale(0.1 -0.1)">
     <defs>
      <path id="DejaVuSans-54" d="M -19 4666 
L 3928 4666 
L 3928 4134 
L 2272 4134 
L 2272 0 
L 1638 0 
L 1638 4134 
L -19 4134 
L -19 4666 
z
" transform="scale(0.015625)"/>
      <path id="DejaVuSans-68" d="M 3513 2113 
L 3513 0 
L 2938 0 
L 2938 2094 
Q 2938 2591 2744 2837 
Q 2550 3084 2163 3084 
Q 1697 3084 1428 2787 
Q 1159 2491 1159 1978 
L 1159 0 
L 581 0 
L 581 4863 
L 1159 4863 
L 1159 2956 
Q 1366 3272 1645 3428 
Q 1925 3584 2291 3584 
Q 2894 3584 3203 3211 
Q 3513 2838 3513 2113 
z
" transform="scale(0.015625)"/>
      <path id="DejaVuSans-79" d="M 2059 -325 
Q 1816 -950 1584 -1140 
Q 1353 -1331 966 -1331 
L 506 -1331 
L 506 -850 
L 844 -850 
Q 1081 -850 1212 -737 
Q 1344 -625 1503 -206 
L 1606 56 
L 191 3500 
L 800 3500 
L 1894 763 
L 2988 3500 
L 3597 3500 
L 2059 -325 
z
" transform="scale(0.015625)"/>
      <path id="DejaVuSans-2b" d="M 2944 4013 
L 2944 2272 
L 4684 2272 
L 4684 1741 
L 2944 1741 
L 2944 0 
L 2419 0 
L 2419 1741 
L 678 1741 
L 678 2272 
L 2419 2272 
L 2419 4013 
L 2944 4013 
z
" transform="scale(0.015625)"/>
      <path id="DejaVuSans-41" d="M 2188 4044 
L 1331 1722 
L 3047 1722 
L 2188 4044 
z
M 1831 4666 
L 2547 4666 
L 4325 0 
L 3669 0 
L 3244 1197 
L 1141 1197 
L 716 0 
L 50 0 
L 1831 4666 
z
" transform="scale(0.015625)"/>
      <path id="DejaVuSans-49" d="M 628 4666 
L 1259 4666 
L 1259 0 
L 628 0 
L 628 4666 
z
" transform="scale(0.015625)"/>
     </defs>
     <use xlink:href="#DejaVuSans-43"/>
     <use xlink:href="#DejaVuSans-6f" x="69.824219"/>
     <use xlink:href="#DejaVuSans-6e" x="131.005859"/>
     <use xlink:href="#DejaVuSans-74" x="194.384766"/>
     <use xlink:href="#DejaVuSans-72" x="233.59375"/>
     <use xlink:href="#DejaVuSans-6f" x="272.457031"/>
     <use xlink:href="#DejaVuSans-6c" x="333.638672"/>
     <use xlink:href="#DejaVuSans-20" x="361.421875"/>
     <use xlink:href="#DejaVuSans-54" x="393.208984"/>
     <use xlink:href="#DejaVuSans-68" x="454.292969"/>
     <use xlink:href="#DejaVuSans-65" x="517.671875"/>
     <use xlink:href="#DejaVuSans-6f" x="579.195312"/>
     <use xlink:href="#DejaVuSans-72" x="640.376953"/>
     <use xlink:href="#DejaVuSans-79" x="681.490234"/>
     <use xlink:href="#DejaVuSans-20" x="740.669922"/>
     <use xlink:href="#DejaVuSans-2b" x="772.457031"/>
     <use xlink:href="#DejaVuSans-20" x="856.246094"/>
     <use xlink:href="#DejaVuSans-41" x="888.033203"/>
     <use xlink:href="#DejaVuSans-49" x="956.441406"/>
     <use xlink:href="#DejaVuSans-20" x="985.933594"/>
     <use xlink:href="#DejaVuSans-2b" x="1017.720703"/>
     <use xlink:href="#DejaVuSans-20" x="1101.509766"/>
     <use xlink:href="#DejaVuSans-53" x="1133.296875"/>
     <use xlink:href="#DejaVuSans-6f" x="1196.773438"/>
     <use xlink:href="#DejaVuSans-43" x="1257.955078"/>
     <use xlink:href="#DejaVuSans-20" x="1327.779297"/>
     <use xlink:href="#DejaVuSans-44" x="1359.566406"/>
     <use xlink:href="#DejaVuSans-65" x="1436.568359"/>
     <use xlink:href="#DejaVuSans-73" x="1498.091797"/>
     <use xlink:href="#DejaVuSans-69" x="1550.191406"/>
     <use xlink:href="#DejaVuSans-67" x="1577.974609"/>
     <use xlink:href="#DejaVuSans-6e" x="1641.451172"/>
    </g>
   </g>
   <g id="text_3">
    <g id="patch_4">
     <path d="M 75.549219 188.957969 
L 273.650781 188.957969 
Q 278.650781 188.957969 278.650781 183.957969 
L 278.650781 163.082031 
Q 278.650781 158.082031 273.650781 158.082031 
L 75.549219 158.082031 
Q 70.549219 158.082031 70.549219 163.082031 
L 70.549219 183.957969 
Q 70.549219 188.957969 75.549219 188.957969 
z
" style="fill: #e8f8f5; stroke: #148f77; stroke-linejoin: miter"/>
    </g>
    <!-- AITL-H -->
    <g style="fill: #333333" transform="translate(158.388281 170.680469) scale(0.1 -0.1)">
     <defs>
      <path id="DejaVuSans-4c" d="M 628 4666 
L 1259 4666 
L 1259 531 
L 3531 531 
L 3531 0 
L 628 0 
L 628 4666 
z
" transform="scale(0.015625)"/>
      <path id="DejaVuSans-48" d="M 628 4666 
L 1259 4666 
L 1259 2753 
L 3553 2753 
L 3553 4666 
L 4184 4666 
L 4184 0 
L 3553 0 
L 3553 2222 
L 1259 2222 
L 1259 0 
L 628 0 
L 628 4666 
z
" transform="scale(0.015625)"/>
     </defs>
     <use xlink:href="#DejaVuSans-41"/>
     <use xlink:href="#DejaVuSans-49" x="68.408203"/>
     <use xlink:href="#DejaVuSans-54" x="97.900391"/>
     <use xlink:href="#DejaVuSans-4c" x="158.984375"/>
     <use xlink:href="#DejaVuSans-2d" x="212.947266"/>
     <use xlink:href="#DejaVuSans-48" x="249.03125"/>
    </g>
    <!-- Intelligent Control Architecture and PoC -->
    <g style="fill: #333333" transform="translate(75.549219 181.878281) scale(0.1 -0.1)">
     <defs>
      <path id="DejaVuSans-50" d="M 1259 4147 
L 1259 2394 
L 2053 2394 
Q 2494 2394 2734 2622 
Q 2975 2850 2975 3272 
Q 2975 3691 2734 3919 
Q 2494 4147 2053 4147 
L 1259 4147 
z
M 628 4666 
L 2053 4666 
Q 2838 4666 3239 4311 
Q 3641 3956 3641 3272 
Q 3641 2581 3239 2228 
Q 2838 1875 2053 1875 
L 1259 1875 
L 1259 0 
L 628 0 
L 628 4666 
z
" transform="scale(0.015625)"/>
     </defs>
     <use xlink:href="#DejaVuSans-49"/>
     <use xlink:href="#DejaVuSans-6e" x="29.492188"/>
     <use xlink:href="#DejaVuSans-74" x="92.871094"/>
     <use xlink:href="#DejaVuSans-65" x="132.080078"/>
     <use xlink:href="#DejaVuSans-6c" x="193.603516"/>
     <use xlink:href="#DejaVuSans-6c" x="221.386719"/>
     <use xlink:href="#DejaVuSans-69" x="249.169922"/>
     <use xlink:href="#DejaVuSans-67" x="276.953125"/>
     <use xlink:href="#DejaVuSans-65" x="340.429688"/>
     <use xlink:href="#DejaVuSans-6e" x="401.953125"/>
     <use xlink:href="#DejaVuSans-74" x="465.332031"/>
     <use xlink:href="#DejaVuSans-20" x="504.541016"/>
     <use xlink:href="#DejaVuSans-43" x="536.328125"/>
     <use xlink:href="#DejaVuSans-6f" x="606.152344"/>
     <use xlink:href="#DejaVuSans-6e" x="667.333984"/>
     <use xlink:href="#DejaVuSans-74" x="730.712891"/>
     <use xlink:href="#DejaVuSans-72" x="769.921875"/>
     <use xlink:href="#DejaVuSans-6f" x="808.785156"/>
     <use xlink:href="#DejaVuSans-6c" x="869.966797"/>
     <use xlink:href="#DejaVuSans-20" x="897.75"/>
     <use xlink:href="#DejaVuSans-41" x="929.537109"/>
     <use xlink:href="#DejaVuSans-72" x="997.945312"/>
     <use xlink:href="#DejaVuSans-63" x="1036.808594"/>
     <use xlink:href="#DejaVuSans-68" x="1091.789062"/>
     <use xlink:href="#DejaVuSans-69" x="1155.167969"/>
     <use xlink:href="#DejaVuSans-74" x="1182.951172"/>
     <use xlink:href="#DejaVuSans-65" x="1222.160156"/>
     <use xlink:href="#DejaVuSans-63" x="1283.683594"/>
     <use xlink:href="#DejaVuSans-74" x="1338.664062"/>
     <use xlink:href="#DejaVuSans-75" x="1377.873047"/>
     <use xlink:href="#DejaVuSans-72" x="1441.251953"/>
     <use xlink:href="#DejaVuSans-65" x="1480.115234"/>
     <use xlink:href="#DejaVuSans-20" x="1541.638672"/>
     <use xlink:href="#DejaVuSans-61" x="1573.425781"/>
     <use xlink:href="#DejaVuSans-6e" x="1634.705078"/>
     <use xlink:href="#DejaVuSans-64" x="1698.083984"/>
     <use xlink:href="#DejaVuSans-20" x="1761.560547"/>
     <use xlink:href="#DejaVuSans-50" x="1793.347656"/>
     <use xlink:href="#DejaVuSans-6f" x="1850.025391"/>
     <use xlink:href="#DejaVuSans-43" x="1911.207031"/>
    </g>
   </g>
   <g id="patch_5">
    <path d="M 174.6 53.552496 
Q 174.6 62.637876 174.6 69.487188 
" style="fill: none; stroke: #000000; stroke-width: 2; stroke-linecap: round"/>
    <path d="M 176.6 65.487188 
L 174.6 69.487188 
L 172.6 65.487188 
" style="fill: none; stroke: #000000; stroke-width: 2; stroke-linecap: round"/>
   </g>
   <g id="patch_6">
    <path d="M 174.6 120.080496 
Q 174.6 129.165876 174.6 136.015188 
" style="fill: none; stroke: #000000; stroke-width: 2; stroke-linecap: round"/>
    <path d="M 176.6 132.015188 
L 174.6 136.015188 
L 172.6 132.015188 
" style="fill: none; stroke: #000000; stroke-width: 2; stroke-linecap: round"/>
   </g>
  </g>
 </g>
</svg>
